HIERARCHY
ROOT Hips
{
	OFFSET 0.000000 0.000000 0.000000
	CHANNELS 6 Xposition Yposition Zposition Xrotation Yrotation Zrotation
	JOINT LeftUpLeg_virtual
	{
		OFFSET 0.000000 0.000000 0.000000
		CHANNELS 3 Xrotation Yrotation Zrotation
		JOINT LeftUpLeg
		{
			OFFSET 13.026900 -6.336304 -1.092800
			CHANNELS 3 Xrotation Yrotation Zrotation
			JOINT LeftLeg
			{
				OFFSET 0.524474 -46.096886 9.782700
				CHANNELS 3 Xrotation Yrotation Zrotation
				JOINT LeftFoot
				{
					OFFSET -0.524474 -53.427422 -12.948200
					CHANNELS 3 Xrotation Yrotation Zrotation
					JOINT LeftToeBase
					{
						OFFSET 0.192200 -14.009700 16.364100
						CHANNELS 3 Xrotation Yrotation Zrotation
						JOINT LeftToe_End
						{
							OFFSET -1.784700 -0.561700 9.474800
							CHANNELS 3 Xrotation Yrotation Zrotation
							End Site
							{
								OFFSET 0 0 0
							}
						}
					}
				}
			}
		}
	}
	JOINT RightUpLeg_virtual
	{
		OFFSET 0.000000 0.000000 0.000000
		CHANNELS 3 Xrotation Yrotation Zrotation
		JOINT RightUpLeg
		{
			OFFSET -12.883000 -6.336304 -1.092800
			CHANNELS 3 Xrotation Yrotation Zrotation
			JOINT RightLeg
			{
				OFFSET -0.524587 -46.096825 9.782800
				CHANNELS 3 Xrotation Yrotation Zrotation
				JOINT RightFoot
				{
					OFFSET 0.524587 -53.427383 -12.948300
					CHANNELS 3 Xrotation Yrotation Zrotation
					JOINT RightToeBase
					{
						OFFSET -0.192200 -14.009700 16.364100
						CHANNELS 3 Xrotation Yrotation Zrotation
						JOINT RightToe_End
						{
							OFFSET 1.784700 -0.561700 9.474800
							CHANNELS 3 Xrotation Yrotation Zrotation
							End Site
							{
								OFFSET 0 0 0
							}
						}
					}
				}
			}
		}
	}
	JOINT Spine_virtual
	{
		OFFSET 0.000000 0.000000 0.000000
		CHANNELS 3 Xrotation Yrotation Zrotation
		JOINT Spine
		{
			OFFSET 0.072000 7.257294 -0.789700
			CHANNELS 3 Xrotation Yrotation Zrotation
			JOINT Spine1
			{
				OFFSET 0.000000 12.508769 -0.658067
				CHANNELS 3 Xrotation Yrotation Zrotation
				JOINT Spine1_split
				{
					OFFSET 0.000000 12.508769 -0.658067
					CHANNELS 3 Xrotation Yrotation Zrotation
					JOINT Spine2
					{
						OFFSET 0.000000 12.508769 -0.658067
						CHANNELS 3 Xrotation Yrotation Zrotation
						JOINT Neck_virtual
						{
							OFFSET 0.000000 0.000000 0.000000
							CHANNELS 3 Xrotation Yrotation Zrotation
							JOINT Neck
							{
								OFFSET 0.000000 14.033295 7.520400
								CHANNELS 3 Xrotation Yrotation Zrotation
								JOINT Head
								{
									OFFSET 0.000000 8.198502 5.703100
									CHANNELS 3 Xrotation Yrotation Zrotation
									JOINT HeadTop_End
									{
										OFFSET 0.000000 17.760803 13.332701
										CHANNELS 3 Xrotation Yrotation Zrotation
										End Site
										{
											OFFSET 0 0 0
										}
									}
								}
							}
						}
						JOINT LeftShoulder_virtual
						{
							OFFSET 0.000000 0.000000 0.000000
							CHANNELS 3 Xrotation Yrotation Zrotation
							JOINT LeftShoulder
							{
								OFFSET 6.292450 5.785301 -0.669000
								CHANNELS 3 Xrotation Yrotation Zrotation
								JOINT LeftShoulder_split
								{
									OFFSET 6.292450 5.785301 -0.669000
									CHANNELS 3 Xrotation Yrotation Zrotation
									JOINT LeftArm
									{
										OFFSET 13.907140 -6.093903 1.965100
										CHANNELS 3 Xrotation Yrotation Zrotation
										JOINT LeftForeArm
										{
											OFFSET 34.140198 0.000000 0.000000
											CHANNELS 3 Xrotation Yrotation Zrotation
											JOINT LeftHand
											{
												OFFSET 40.960209 0.000000 0.000000
												CHANNELS 3 Xrotation Yrotation Zrotation
												End Site
												{
													OFFSET 0 0 0
												}
											}
										}
									}
								}
							}
						}
						JOINT RightShoulder_virtual
						{
							OFFSET 0.000000 0.000000 0.000000
							CHANNELS 3 Xrotation Yrotation Zrotation
							JOINT RightShoulder
							{
								OFFSET -6.292450 5.785301 -0.669000
								CHANNELS 3 Xrotation Yrotation Zrotation
								JOINT RightShoulder_split
								{
									OFFSET -6.292450 5.785301 -0.669000
									CHANNELS 3 Xrotation Yrotation Zrotation
									JOINT RightArm
									{
										OFFSET -13.907140 -6.093903 1.965100
										CHANNELS 3 Xrotation Yrotation Zrotation
										JOINT RightForeArm
										{
											OFFSET -34.140198 0.000000 0.000000
											CHANNELS 3 Xrotation Yrotation Zrotation
											JOINT RightHand
											{
												OFFSET -40.960209 0.000000 0.000000
												CHANNELS 3 Xrotation Yrotation Zrotation
												End Site
												{
													OFFSET 0 0 0
												}
											}
										}
									}
								}
							}
						}
					}
				}
			}
		}
	}
}
MOTION
Frames: 5
Frame Time: 0.03333333
-3.143377 109.498886 -7.802692 0.000000 0.000000 0.000000 -4.345374 -8.363837 2.914782 -16.666095 7.120191 3.669771 28.356128 8.524317 -2.648429 -6.988335 0.267541 -2.638278 0.629539 0.081101 0.038050 0.000000 0.000000 0.000000 -3.610322 -6.261546 2.973952 -4.829461 -14.312584 -15.577271 22.608394 -0.920555 -3.732105 -10.128952 -1.570081 11.686958 -5.184199 -0.328072 0.643954 0.000000 0.000000 0.000000 -5.044903 -4.186012 1.141257 8.792649 3.545128 -4.512504 1.817539 0.497728 -1.090736 0.768798 0.925538 0.107724 0.000000 0.000000 0.000000 1.246933 0.051389 -0.172407 -4.819196 -1.041599 1.344226 7.898026 3.400877 -4.113644 0.000000 0.000000 0.000000 0.792569 0.400034 -0.851156 0.343230 2.960219 0.311556 -2.487625 -2.606111 0.155658 -12.667317 -5.430326 -65.325446 -1.558774 -34.529202 0.841470 0.000000 0.000000 0.000000 2.546144 0.186835 -0.652204 4.459367 12.162462 -5.628533 -1.231849 0.189147 -1.591761 -1.092221 2.727937 76.409661 -0.515429 36.734407 -0.160901 0.000000 0.000000 0.000000 
-3.391401 109.465591 -8.107677 0.000000 0.000000 0.000000 -4.154281 -8.114760 3.009981 -16.835088 7.101062 3.652891 28.448829 8.523029 -2.608979 -6.763406 0.418397 -2.801538 0.735029 0.063942 0.086963 0.000000 0.000000 0.000000 -3.502822 -6.308533 3.033151 -5.071988 -14.287631 -15.521572 22.492100 -1.111779 -3.788926 -10.415252 -1.558233 11.604949 -4.874875 -0.281419 0.547970 0.000000 0.000000 0.000000 -4.707743 -4.385764 1.340418 8.872872 3.436989 -4.682749 1.814017 0.435834 -1.115473 0.775510 1.123169 -0.066895 0.000000 0.000000 0.000000 1.311226 0.019648 -0.195005 -4.829061 -0.887186 1.475110 7.668760 3.602812 -4.450589 0.000000 0.000000 0.000000 0.892587 0.344830 -0.847625 0.379595 2.827533 0.317888 -2.391052 -2.908065 0.227399 -13.120775 -5.399024 -65.294505 -1.733399 -35.206978 0.625625 0.000000 0.000000 0.000000 2.589322 0.128761 -0.665533 4.453875 12.360995 -5.511688 -1.288358 -0.187111 -1.614149 -0.740803 2.599780 76.330950 -0.580829 36.813009 -0.030756 0.000000 0.000000 0.000000 
-3.695678 109.435524 -8.516964 0.000000 0.000000 0.000000 -3.858792 -7.886868 2.888373 -17.364779 7.174800 3.922629 28.337768 8.566703 -2.607205 -6.426143 0.869556 -3.029143 0.932398 0.055100 0.065509 0.000000 0.000000 0.000000 -3.320129 -6.563302 2.878377 -5.557499 -14.145538 -15.336391 22.603580 -1.077207 -3.745663 -10.632438 -1.554574 12.036842 -4.809851 -0.261793 0.471943 0.000000 0.000000 0.000000 -4.186452 -4.886007 1.439751 9.135191 3.328945 -4.808201 1.819583 0.408250 -1.168383 0.834200 1.381948 -0.132457 0.000000 0.000000 0.000000 1.401898 0.035880 -0.270397 -4.859794 -0.615814 1.618587 6.977302 3.996390 -4.777654 0.000000 0.000000 0.000000 1.017647 0.349112 -0.851890 0.401142 2.612775 0.428952 -2.151377 -2.999854 0.252835 -13.695611 -5.513064 -65.205180 -1.571150 -35.772778 0.624430 0.000000 0.000000 0.000000 2.640788 0.107281 -0.684838 4.409390 12.474313 -5.485176 -1.319311 -0.329673 -1.654013 -0.160150 2.172136 76.274765 -0.665156 37.121272 0.077877 0.000000 0.000000 0.000000 
-3.970367 109.396965 -8.976269 0.000000 0.000000 0.000000 -3.475635 -7.775294 2.564494 -18.167769 7.398208 4.460537 28.035920 8.788166 -2.689380 -6.043749 1.663253 -3.153479 1.165956 0.056194 -0.041002 0.000000 0.000000 0.000000 -3.050982 -7.011237 2.516094 -6.230804 -13.931871 -14.992796 22.975740 -0.844162 -3.627405 -10.941629 -1.547995 12.707702 -4.737189 -0.267281 0.466251 0.000000 0.000000 0.000000 -3.585764 -5.619862 1.406083 9.544646 3.222417 -4.876310 1.851914 0.424270 -1.218535 0.914384 1.631126 -0.144586 0.000000 0.000000 0.000000 1.549009 0.109717 -0.368674 -4.919344 -0.282914 1.713351 5.831192 4.460707 -5.015984 0.000000 0.000000 0.000000 1.188996 0.416986 -0.839456 0.410396 2.342854 0.637228 -1.951403 -2.823798 0.189850 -14.447734 -5.762996 -65.216436 -1.103244 -35.835844 0.850797 0.000000 0.000000 0.000000 2.724897 0.132128 -0.690436 4.332313 12.511412 -5.630076 -1.400540 -0.254057 -1.696357 0.510193 1.595996 76.305125 -0.718615 37.531657 0.120814 0.000000 0.000000 0.000000 
-4.198061 109.344421 -9.450649 0.000000 0.000000 0.000000 -2.973296 -7.967084 2.105507 -19.127111 7.690787 5.215118 27.713522 9.233840 -2.905934 -5.692899 2.785957 -3.122643 1.385283 0.068738 -0.196227 0.000000 0.000000 0.000000 -2.665921 -7.725499 2.018155 -7.153316 -13.653996 -14.602121 23.654692 -0.518041 -3.440871 -11.467055 -1.516523 13.207387 -4.155907 -0.278932 0.576383 0.000000 0.000000 0.000000 -2.968050 -6.546537 1.247779 10.084105 3.123063 -4.874282 1.919157 0.486872 -1.240501 0.927451 1.703277 -0.030409 0.000000 0.000000 0.000000 1.755339 0.247090 -0.455558 -5.041445 0.061838 1.708467 4.250335 4.864968 -5.118212 0.000000 0.000000 0.000000 1.403463 0.540706 -0.791555 0.409153 2.019582 0.846416 -1.899823 -2.628519 0.171851 -15.416895 -6.076039 -65.290051 -0.460694 -35.247956 1.233493 0.000000 0.000000 0.000000 2.844519 0.208029 -0.665853 4.236259 12.488764 -6.050698 -1.468945 -0.052470 -1.607462 1.163633 1.081126 76.348264 -0.687542 37.871842 0.052614 0.000000 0.000000 0.000000 
